<svg width="26" height="25" viewBox="0 0 26 25" fill="none" xmlns="http://www.w3.org/2000/svg">
<path d="M13 2.25C11.0716 2.25 9.18657 2.82183 7.58319 3.89317C5.97982 4.96451 4.73013 6.48726 3.99218 8.26884C3.25422 10.0504 3.06114 12.0108 3.43735 13.9021C3.81355 15.7934 4.74215 17.5307 6.10571 18.8943C7.46928 20.2579 9.20656 21.1865 11.0979 21.5627C12.9892 21.9389 14.9496 21.7458 16.7312 21.0078C18.5127 20.2699 20.0355 19.0202 21.1068 17.4168C22.1782 15.8134 22.75 13.9284 22.75 12C22.7473 9.41498 21.7192 6.93661 19.8913 5.10872C18.0634 3.28084 15.585 2.25273 13 2.25ZM17.8356 7.66781L14.8356 13.6678C14.7989 13.7401 14.7401 13.7989 14.6678 13.8356L8.66782 16.8356C8.59738 16.871 8.51758 16.8833 8.43975 16.8708C8.36193 16.8582 8.29004 16.8214 8.2343 16.7657C8.17856 16.71 8.1418 16.6381 8.12925 16.5603C8.1167 16.4824 8.12899 16.4026 8.16438 16.3322L11.1644 10.3322C11.2011 10.2599 11.2599 10.2011 11.3322 10.1644L17.3322 7.16437C17.4026 7.12899 17.4824 7.11669 17.5603 7.12925C17.6381 7.1418 17.71 7.17856 17.7657 7.2343C17.8214 7.29004 17.8582 7.36193 17.8708 7.43975C17.8833 7.51757 17.871 7.59737 17.8356 7.66781Z" fill="#15141A"/>
</svg>
