<svg width="26" height="25" viewBox="0 0 26 25" fill="none" xmlns="http://www.w3.org/2000/svg">
<path d="M12.5059 2.34375C10.4971 2.34375 8.53354 2.9394 6.86335 4.05539C5.19317 5.17137 3.89141 6.75756 3.12271 8.61337C2.35401 10.4692 2.15288 12.5113 2.54476 14.4814C2.93664 16.4515 3.90393 18.2612 5.32431 19.6816C6.74469 21.1019 8.55436 22.0692 10.5245 22.4611C12.4946 22.853 14.5367 22.6519 16.3925 21.8832C18.2483 21.1144 19.8345 19.8127 20.9505 18.1425C22.0665 16.4723 22.6621 14.5087 22.6621 12.5C22.6593 9.80727 21.5883 7.22564 19.6843 5.32159C17.7802 3.41754 15.1986 2.34659 12.5059 2.34375ZM12.5059 21.0938C10.8062 21.0938 9.14467 20.5897 7.73143 19.6454C6.3182 18.7011 5.21671 17.359 4.56627 15.7887C3.91583 14.2184 3.74565 12.4905 4.07724 10.8234C4.40883 9.15642 5.22731 7.62516 6.42916 6.4233C7.63102 5.22144 9.16228 4.40297 10.8293 4.07138C12.4963 3.73978 14.2242 3.90997 15.7945 4.56041C17.3649 5.21085 18.707 6.31233 19.6513 7.72557C20.5956 9.1388 21.0996 10.8003 21.0996 12.5C21.097 14.7784 20.1908 16.9628 18.5797 18.5738C16.9686 20.1849 14.7843 21.0912 12.5059 21.0938ZM16.8438 7.11328L10.5938 10.2383C10.4427 10.3142 10.32 10.4368 10.2441 10.5879L7.11914 16.8379C7.05952 16.957 7.03136 17.0895 7.03734 17.2226C7.04332 17.3557 7.08324 17.485 7.15331 17.5984C7.22338 17.7117 7.32127 17.8052 7.43767 17.87C7.55408 17.9349 7.68513 17.9688 7.81836 17.9688C7.93965 17.9686 8.05927 17.9405 8.16797 17.8867L14.418 14.7617C14.5691 14.6858 14.6917 14.5632 14.7676 14.4121L17.8926 8.16211C17.9663 8.01536 17.9919 7.84911 17.9658 7.68698C17.9396 7.52485 17.863 7.37508 17.7469 7.25895C17.6308 7.14282 17.481 7.06625 17.3189 7.0401C17.1568 7.01395 16.9905 7.03955 16.8438 7.11328ZM13.4824 13.4766L9.56543 15.4404L11.5293 11.5234L15.4502 9.56348L13.4824 13.4766Z" fill="#15141A"/>
</svg>
